<svg width="24" height="24" viewBox="0 0 24 24" fill="none" xmlns="http://www.w3.org/2000/svg">
<path d="M4.79844 4.80005C3.47295 4.80005 2.39844 5.87457 2.39844 7.20005V12C2.39844 13.3255 3.47295 14.4 4.79844 14.4L4.79844 7.20005H16.7984C16.7984 5.87457 15.7239 4.80005 14.3984 4.80005H4.79844Z" fill="white"/>
<path fill-rule="evenodd" clip-rule="evenodd" d="M7.19844 12C7.19844 10.6746 8.27295 9.60005 9.59844 9.60005H19.1984C20.5239 9.60005 21.5984 10.6746 21.5984 12V16.8C21.5984 18.1255 20.5239 19.2 19.1984 19.2H9.59844C8.27295 19.2 7.19844 18.1255 7.19844 16.8V12ZM14.3984 16.8C15.7239 16.8 16.7984 15.7255 16.7984 14.4C16.7984 13.0746 15.7239 12 14.3984 12C13.073 12 11.9984 13.0746 11.9984 14.4C11.9984 15.7255 13.073 16.8 14.3984 16.8Z" fill="white"/>
</svg>
